<?xml version="1.0" encoding="iso-8859-1"?>
<!-- Generator: Adobe Illustrator 19.0.0, SVG Export Plug-In . SVG Version: 6.00 Build 0)  -->
<svg version="1.1" id="Capa_1" xmlns="http://www.w3.org/2000/svg" xmlns:xlink="http://www.w3.org/1999/xlink" x="0px" y="0px"
	 viewBox="0 0 512 512" style="enable-background:new 0 0 512 512;" xml:space="preserve">
<polygon style="fill:#4F4F4F;" points="85.5,344.999 136,344.999 136,269.999 86,269.999 "/>
<rect x="76" y="270" style="fill:#696969;" width="30" height="75"/>
<polygon style="fill:#CCCCCC;" points="174.5,314.999 145.5,329.999 174.5,344.999 204.5,344.999 204.5,314.999 "/>
<rect x="7.5" y="315" style="fill:#EBEBEB;" width="167" height="30"/>
<polygon style="fill:#2DADE3;" points="204.5,139.999 204.5,284.999 174.5,284.999 115.5,212.499 174.5,139.999 "/>
<rect x="7.5" y="140" style="fill:#49C9FF;" width="167" height="145"/>
<polygon style="fill:#FFFFFF;" points="78.143,182.499 78.143,242.499 133.857,212.499 "/>
<path style="fill:#FF6337;" d="M474.5,222.499h-30v132h33.25l26.75-54.5v-47.5C504.5,235.999,491,222.499,474.5,222.499z"/>
<path style="fill:#FF8646;" d="M444.5,222.499h-180c-16.5,0-30,13.5-30,30v47.5l18.25,67.5H474.5v-115
	C474.5,235.999,461,222.499,444.5,222.499z"/>
<path style="fill:#353535;" d="M414.5,277.499l-60-30l45,120h30v-50.335C429.5,301.953,423.829,288.074,414.5,277.499z"/>
<path style="fill:#4F4F4F;" d="M384.5,277.499l-30-30l-30,30c-9.329,10.575-15,24.454-15,39.665v50.335h90v-50.335
	C399.5,301.953,393.829,288.074,384.5,277.499z"/>
<path style="fill:#FFCB63;" d="M394.5,172.499h-30l20,105h30v-85C414.5,181.453,405.546,172.499,394.5,172.499z"/>
<path style="fill:#FFE2A8;" d="M364.5,172.499h-20c-11.046,0-20,8.954-20,20v85h60v-85C384.5,181.453,375.546,172.499,364.5,172.499
	z"/>
<path style="fill:#85453D;" d="M423.672,126.416l-9.448-23.852h25.655c3.423-0.022,6.887,0.954,9.932,3.024
	c7.994,5.432,10.071,16.316,4.639,24.31s-16.316,10.071-24.31,4.639C427.095,132.467,424.912,129.606,423.672,126.416z"/>
<path style="fill:#A45E43;" d="M315.328,126.416l9.448-23.852h-25.655c-3.423-0.022-6.887,0.954-9.932,3.024
	c-7.994,5.432-10.071,16.316-4.639,24.31s16.316,10.071,24.31,4.639C311.905,132.467,314.088,129.606,315.328,126.416z"/>
<path style="fill:#FFB4A9;" d="M397.783,62.507H369.5v79.992c24.853,0,45-20.147,45-45C414.5,83.364,407.977,70.757,397.783,62.507z
	"/>
<path style="fill:#FFD9D4;" d="M383.201,79.185l-41.984-16.678c-10.194,8.25-16.717,20.856-16.717,34.992c0,24.853,20.147,45,45,45
	c8.284,0,15-20.147,15-45C384.5,90.975,384.033,84.781,383.201,79.185z"/>
<path style="fill:#85453D;" d="M369.5,52.499v26.686h13.701c6.754-3.473,12.02-9.436,14.583-16.678
	C390.054,56.252,380.218,52.499,369.5,52.499z"/>
<path style="fill:#A45E43;" d="M369.5,52.499c-10.718,0-20.554,3.753-28.283,10.008c4.121,11.646,15.225,19.992,28.283,19.992
	c4.938,0,9.593-1.2,13.701-3.314C380.862,63.463,375.609,52.499,369.5,52.499z"/>
<path style="fill:#CF301B;" d="M429.5,337.499h-30l30,67h50l-20-37C459.5,350.999,446,337.499,429.5,337.499z"/>
<path style="fill:#FF4128;" d="M399.5,337.499h-90c-16.5,0-30,13.5-30,30l-20,37h170v-37C429.5,350.999,416,337.499,399.5,337.499z"
	/>
<path style="fill:#FF6337;" d="M257,277.499c-12.426,0-22.5,10.074-22.5,22.5v84.5l45,20v-104.5
	C279.5,287.573,269.426,277.499,257,277.499z"/>
<path style="fill:#FF4128;" d="M482,277.499c12.426,0,22.5,10.074,22.5,22.5v84.5l-45,20v-104.5
	C459.5,287.573,469.574,277.499,482,277.499z"/>
<polygon style="fill:#CCCCCC;" points="474.5,414.499 504.5,414.499 504.5,384.499 474.5,384.499 454.5,399.499 "/>
<rect x="234.5" y="384.5" style="fill:#EBEBEB;" width="240" height="30"/>
<path style="fill:#A8E5FF;" d="M245.179,384.499h248.642H245.179z"/>
<path d="M74.297,248.938C75.48,249.645,76.81,250,78.143,250c1.222,0,2.444-0.298,3.556-0.896l55.715-30
	c2.43-1.308,3.944-3.845,3.944-6.604s-1.515-5.296-3.944-6.604l-55.715-30c-2.322-1.251-5.134-1.189-7.401,0.165
	c-2.267,1.354-3.654,3.799-3.654,6.438v60C70.643,245.139,72.03,247.584,74.297,248.938z M85.643,195.056l32.396,17.443
	l-32.396,17.443C85.643,229.942,85.643,195.056,85.643,195.056z"/>
<path d="M204.5,132.499H7.5c-4.143,0-7.5,3.357-7.5,7.5v145c0,4.143,3.357,7.5,7.5,7.5h61v15h-61c-4.143,0-7.5,3.357-7.5,7.5v144.5
	c0,4.143,3.357,7.5,7.5,7.5s7.5-3.357,7.5-7.5v-107h182v107c0,4.143,3.357,7.5,7.5,7.5s7.5-3.357,7.5-7.5v-144.5
	c0-4.143-3.357-7.5-7.5-7.5h-61v-15h61c4.143,0,7.5-3.357,7.5-7.5v-145C212,135.856,208.643,132.499,204.5,132.499z M197,337.499H15
	v-15h182V337.499z M128.5,307.499h-45v-15h45V307.499z M197,277.499H15v-130h182V277.499z"/>
<path d="M299.039,145.063c5.019,0,9.872-1.495,14.036-4.324c4.206-2.858,7.402-6.872,9.226-11.562l1.992-5.029
	c9.147,15.457,25.982,25.851,45.207,25.851s36.06-10.394,45.207-25.851l1.975,4.985c1.841,4.733,5.037,8.747,9.244,11.605
	c4.163,2.829,9.016,4.324,14.035,4.324c8.298,0,16.034-4.094,20.692-10.951c7.747-11.401,4.774-26.98-6.629-34.73
	c-4.16-2.825-9.014-4.318-14.035-4.318h-18.051c-1.278-27.821-24.307-50.064-52.438-50.064s-51.161,22.243-52.438,50.064h-18.051
	c-5.021,0-9.875,1.493-14.038,4.32c-11.4,7.748-14.373,23.327-6.626,34.729C283.005,140.97,290.741,145.063,299.039,145.063z
	 M439.989,110.063c2.004,0,3.943,0.598,5.606,1.727c4.561,3.1,5.75,9.332,2.651,13.893c-1.864,2.743-4.962,4.381-8.286,4.381
	c-2.001,0-3.939-0.599-5.604-1.73c-1.683-1.144-2.96-2.746-3.712-4.679l-5.383-13.591L439.989,110.063L439.989,110.063z
	 M388.188,65.008c-4.112,6.13-11.079,9.991-18.688,9.991s-14.576-3.86-18.688-9.991c5.506-3.18,11.886-5.009,18.688-5.009
	S382.682,61.829,388.188,65.008z M339.515,75.006c6.962,9.254,18.001,14.993,29.985,14.993s23.023-5.739,29.985-14.993
	c4.716,6.27,7.515,14.06,7.515,22.493c0,20.678-16.822,37.5-37.5,37.5s-37.5-16.822-37.5-37.5
	C332,89.066,334.799,81.276,339.515,75.006z M293.401,111.792c1.666-1.131,3.605-1.729,5.609-1.729h14.728l-5.4,13.635
	c-0.734,1.889-2.012,3.491-3.693,4.635c-1.667,1.132-3.604,1.73-5.605,1.73c-3.324,0-6.422-1.638-8.286-4.381
	C287.654,121.121,288.844,114.89,293.401,111.792z"/>
<path d="M474.5,214.999H422v-15.286c50.271-3.842,90-45.976,90-97.214c0-4.143-3.357-7.5-7.5-7.5s-7.5,3.357-7.5,7.5
	c0,43.343-33.605,78.961-76.125,82.229c-3.362-11.39-13.91-19.729-26.375-19.729h-50c-12.465,0-23.013,8.339-26.375,19.729
	C275.605,181.46,242,145.842,242,102.499c0-4.143-3.357-7.5-7.5-7.5s-7.5,3.357-7.5,7.5c0,51.238,39.729,93.372,90,97.214v75.044
	c-9.693,11.988-15,26.935-15,42.406v13.59c-5.539,1.129-10.637,3.483-15,6.766v-37.52c0-16.542-13.458-30-30-30
	c-5.462,0-10.584,1.475-15,4.036v-21.536c0-12.406,10.094-22.5,22.5-22.5h30c4.143,0,7.5-3.357,7.5-7.5s-3.357-7.5-7.5-7.5h-30
	c-20.678,0-37.5,16.822-37.5,37.5v207c0,4.143,3.357,7.5,7.5,7.5s7.5-3.357,7.5-7.5v-37.5h90v7.729l-13.208,26.416
	c-1.853,3.705-0.351,8.21,3.354,10.063c1.077,0.539,2.222,0.794,3.349,0.794c2.751,0,5.4-1.52,6.714-4.147l14-28
	c0.521-1.042,0.792-2.19,0.792-3.354V422h45v9.5c0,1.164,0.271,2.313,0.792,3.354l14,28c1.313,2.628,3.963,4.147,6.714,4.147
	c1.127,0,2.271-0.256,3.349-0.794c3.704-1.853,5.206-6.357,3.354-10.063L407,429.729V422h90v37.5c0,4.143,3.357,7.5,7.5,7.5
	s7.5-3.357,7.5-7.5v-207C512,231.821,495.178,214.999,474.5,214.999z M407,376.999v-32h22.5c12.406,0,22.5,10.094,22.5,22.5v9.5H407
	z M467,299.999c0-8.271,6.729-15,15-15s15,6.729,15,15v77h-30V299.999z M474.5,229.999c12.406,0,22.5,10.094,22.5,22.5v21.536
	c-4.416-2.561-9.538-4.036-15-4.036c-16.542,0-30,13.458-30,30v37.52c-4.363-3.282-9.461-5.637-15-6.766v-13.59
	c0-15.472-5.307-30.418-15-42.406v-44.759h52.5V229.999z M344.5,179.999h50c6.893,0,12.5,5.607,12.5,12.5v77.5h-75v-77.5
	C332,185.606,337.607,179.999,344.5,179.999z M328.039,284.999h82.923c7.133,9.183,11.039,20.478,11.039,32.165v12.835h-15v-7.5
	c0-4.143-3.357-7.5-7.5-7.5s-7.5,3.357-7.5,7.5v7.5h-45v-7.5c0-4.143-3.357-7.5-7.5-7.5s-7.5,3.357-7.5,7.5v7.5h-15v-12.835
	C317,305.477,320.905,294.182,328.039,284.999z M309.5,344.999H332v32h-45v-9.5C287,355.093,297.094,344.999,309.5,344.999z
	 M257,284.999c8.271,0,15,6.729,15,15v77h-30v-77C242,291.728,248.729,284.999,257,284.999z M242,406.999v-15h90v15H242z
	 M347,406.999v-15h22.5c4.143,0,7.5-3.357,7.5-7.5s-3.357-7.5-7.5-7.5H347v-32h45v62H347z M407,406.999v-15h90v15H407z"/>
<g>
</g>
<g>
</g>
<g>
</g>
<g>
</g>
<g>
</g>
<g>
</g>
<g>
</g>
<g>
</g>
<g>
</g>
<g>
</g>
<g>
</g>
<g>
</g>
<g>
</g>
<g>
</g>
<g>
</g>
</svg>
