<svg height="512" viewBox="0 0 64 64" width="512" xmlns="http://www.w3.org/2000/svg"><path d="m28 40h-16v19h16a2.015 2.015 0 0 1 2 2v-19a2.006 2.006 0 0 0 -2-2z" fill="#00ccb3"/><path d="m49 40h-13a2.006 2.006 0 0 0 -2 2v19a2.015 2.015 0 0 1 2-2h16v-19z" fill="#00ccb3"/><path d="m36 40a2.006 2.006 0 0 0 -2 2h-4a2.006 2.006 0 0 0 -2-2h-13v-4h13a4 4 0 0 1 4 4 4 4 0 0 1 4-4h13v4z" fill="#e6e7e8"/><path d="m30 42h4v19h-4z" fill="#009986"/><path d="m32 34c3.78 0 6.85-1.7 6.98-3.84l5.6 1.63c.08.02.16.05.24.07a6.24 6.24 0 0 1 2.26 1.32 6.085 6.085 0 0 1 1.71 2.82h-12.79a4 4 0 0 0 -4 4 4 4 0 0 0 -4-4h-12.79a6.085 6.085 0 0 1 1.71-2.82 6.24 6.24 0 0 1 2.26-1.32c.08-.02.16-.05.24-.07l5.6-1.63c.13 2.14 3.2 3.84 6.98 3.84z" fill="#3d9ae2"/><path d="m43 14v6.34a9.993 9.993 0 0 1 5 8.66 9.874 9.874 0 0 1 -.92 4.18 6.24 6.24 0 0 0 -2.26-1.32c-.08-.02-.16-.05-.24-.07l-5.6-1.63-3.98-1.16v-2.58a8.008 8.008 0 0 0 5-7.42v-4h-.53a4.02 4.02 0 0 1 -3.58-2.21l-.83-1.66a26.785 26.785 0 0 0 4.66-4.48v-.01l.42-.04a10.939 10.939 0 0 1 2.86 7.4z" fill="#787680"/><path d="m32 3a10.969 10.969 0 0 1 8.14 3.6l-.42.04v.01a26.785 26.785 0 0 1 -4.66 4.48c-5.94 4.44-11.06 3.87-11.06 3.87v4a8.014 8.014 0 0 0 2.34 5.66 8.23 8.23 0 0 0 2.66 1.76v2.58l-3.98 1.16-5.6 1.63c-.08.02-.16.05-.24.07a6.24 6.24 0 0 0 -2.26 1.32 9.874 9.874 0 0 1 -.92-4.18 9.993 9.993 0 0 1 5-8.66v-6.34a10.994 10.994 0 0 1 11-11z" fill="#898890"/><path d="m38.98 30.16c-.13 2.14-3.2 3.84-6.98 3.84s-6.85-1.7-6.98-3.84l3.98-1.16v-2.58a7.935 7.935 0 0 0 3 .58 8.093 8.093 0 0 0 3-.58v2.58z" fill="#ffb655"/><g fill="#ffc477"><path d="m13 51h-4a1 1 0 0 0 -1 1v1a1 1 0 0 0 1 1h4a1 1 0 0 0 1-1v-1a1 1 0 0 0 -1-1z"/><path d="m13 48h-4a1 1 0 0 0 -1 1v1a1 1 0 0 0 1 1h4a1 1 0 0 0 1-1v-1a1 1 0 0 0 -1-1z"/><path d="m13 45h-4a1 1 0 0 0 -1 1v1a1 1 0 0 0 1 1h4a1 1 0 0 0 1-1v-1a1 1 0 0 0 -1-1z"/><path d="m55 51h-4a1 1 0 0 0 -1 1v1a1 1 0 0 0 1 1h4a1 1 0 0 0 1-1v-1a1 1 0 0 0 -1-1z"/><path d="m55 48h-4a1 1 0 0 0 -1 1v1a1 1 0 0 0 1 1h4a1 1 0 0 0 1-1v-1a1 1 0 0 0 -1-1z"/><path d="m55 45h-4a1 1 0 0 0 -1 1v1a1 1 0 0 0 1 1h4a1 1 0 0 0 1-1v-1a1 1 0 0 0 -1-1z"/><path d="m35 26.42a8.093 8.093 0 0 1 -3 .58 7.935 7.935 0 0 1 -3-.58 8.23 8.23 0 0 1 -2.66-1.76 8.014 8.014 0 0 1 -2.34-5.66v-4s5.12.57 11.06-3.87l.83 1.66a4.02 4.02 0 0 0 3.58 2.21h.53v4a8.008 8.008 0 0 1 -5 7.42z"/></g><path d="m35 26.42v1a8.093 8.093 0 0 1 -3 .58 7.935 7.935 0 0 1 -3-.58v-1a7.935 7.935 0 0 0 3 .58 8.093 8.093 0 0 0 3-.58z" fill="#ffa733"/><path d="m32 22a2 2 0 0 1 -2-2h-2a4 4 0 0 0 8 0h-2a2 2 0 0 1 -2 2z"/><path d="m57 46a2 2 0 0 0 -2-2h-2v-4a1 1 0 0 0 -1-1h-2v-3a.984.984 0 0 0 -.429-.8 6.978 6.978 0 0 0 -1.329-2.244 10.744 10.744 0 0 0 .758-3.956 11.039 11.039 0 0 0 -5-9.219v-5.781a12 12 0 0 0 -24 0v5.781a11.039 11.039 0 0 0 -5 9.219 10.744 10.744 0 0 0 .758 3.957 6.978 6.978 0 0 0 -1.329 2.243.984.984 0 0 0 -.429.8v3h-2a1 1 0 0 0 -1 1v4h-2a2 2 0 0 0 -2 2v1a1.978 1.978 0 0 0 .278 1 1.978 1.978 0 0 0 -.278 1v1a1.978 1.978 0 0 0 .278 1 1.978 1.978 0 0 0 -.278 1v1a2 2 0 0 0 2 2h2v4a1 1 0 0 0 1 1h16a.974.974 0 0 1 .712.306.957.957 0 0 1 .288.694 1 1 0 0 0 1 1h4a1 1 0 0 0 1-1 .974.974 0 0 1 .306-.712.957.957 0 0 1 .694-.288h16a1 1 0 0 0 1-1v-4h2a2 2 0 0 0 2-2v-1a1.978 1.978 0 0 0 -.278-1 1.978 1.978 0 0 0 .278-1v-1a1.978 1.978 0 0 0 -.278-1 1.978 1.978 0 0 0 .278-1zm-2 1h-4v-1h4zm0 3h-4v-1h4zm-23-12.969a4.982 4.982 0 0 0 -4-2.031h-11.278a4.947 4.947 0 0 1 2.7-2.17l.172-.05.1-.03 4.627-1.35c.934 2.117 3.959 3.6 7.679 3.6s6.745-1.483 7.679-3.6l4.621 1.35.1.03.11.032a5.011 5.011 0 0 1 2.766 2.188h-11.276a4.982 4.982 0 0 0 -4 2.031zm0-11.031a6.987 6.987 0 0 1 -7-7v-2.981a18.715 18.715 0 0 0 9.687-3.4l.31.619a5.059 5.059 0 0 0 4 2.737v3.025a7.008 7.008 0 0 1 -6.997 7zm-2 3v-1.231a8.755 8.755 0 0 0 4 0v1.231a1 1 0 0 0 .72.96l2.988.87c-.708 1.145-2.84 2.17-5.708 2.17s-5-1.025-5.708-2.17l2.988-.87a1 1 0 0 0 .72-.96zm12.5-7.794a9.033 9.033 0 0 1 4.5 7.794 8.841 8.841 0 0 1 -.392 2.588 7.047 7.047 0 0 0 -1.482-.68c-.021-.007-.106-.032-.127-.037-.059-.019-.118-.037-.139-.041l-8.86-2.58v-1.2a9 9 0 0 0 5-8.05v-4a1 1 0 0 0 -1-1h-.53a3.032 3.032 0 0 1 -2.685-1.657l-.462-.922a28.165 28.165 0 0 0 3.607-3.489 9.934 9.934 0 0 1 2.07 6.068v6.34a1 1 0 0 0 .5.866zm-21 0a1 1 0 0 0 .5-.866v-6.34a9.984 9.984 0 0 1 16.553-7.535 25.52 25.52 0 0 1 -4.092 3.864c-5.513 4.121-10.3 3.68-10.35 3.677a1 1 0 0 0 -1.111.994v4a8.986 8.986 0 0 0 2.635 6.37 9.087 9.087 0 0 0 2.365 1.687v1.193l-8.823 2.57c-.058.014-.117.032-.176.051l-.127.037a7.047 7.047 0 0 0 -1.482.68 8.841 8.841 0 0 1 -.392-2.588 9.033 9.033 0 0 1 4.5-7.794zm-5.5 15.794h12a3 3 0 0 1 3 3h2a3 3 0 0 1 3-3h12v2h-12a3 3 0 0 0 -2.816 2h-2.368a3 3 0 0 0 -2.816-2h-12zm-7 12h4v1h-4zm0-3h4v1h-4zm0 6h4v1h-4zm19 6h-15v-3a2 2 0 0 0 2-2v-1a1.978 1.978 0 0 0 -.278-1 1.978 1.978 0 0 0 .278-1v-1a1.978 1.978 0 0 0 -.278-1 1.978 1.978 0 0 0 .278-1v-1a2 2 0 0 0 -2-2v-3h15a1 1 0 0 1 1 1v16.182a2.992 2.992 0 0 0 -1-.182zm3-15h2v17h-2zm20 15h-15a3.012 3.012 0 0 0 -1 .181v-16.181a1 1 0 0 1 1-1h15v3a2 2 0 0 0 -2 2v1a1.978 1.978 0 0 0 .278 1 1.978 1.978 0 0 0 -.278 1v1a1.978 1.978 0 0 0 .278 1 1.978 1.978 0 0 0 -.278 1v1a2 2 0 0 0 2 2zm0-5v-1h4v1z"/></svg>